<svg width="46" height="46" viewBox="0 0 46 46" fill="none" xmlns="http://www.w3.org/2000/svg">
<mask id="path-1-inside-1_59_13" fill="white">
<path fill-rule="evenodd" clip-rule="evenodd" d="M22.6892 0C10.1583 0 0 10.1583 0 22.6892V23.3108C0 28.3532 1.64485 33.0114 4.42726 36.7781L7.29413 33.8797L20.0029 20.6642L13.8656 14.6057L29.7008 14.3929L29.9108 30.445L23.7735 24.3865L8.11397 40.7001C12.0564 44.008 17.1402 46 22.6892 46C35.2201 46 45.3784 35.8417 45.3784 23.3108V22.6892C45.3784 10.1583 35.2201 0 22.6892 0Z"/>
</mask>
<path fill-rule="evenodd" clip-rule="evenodd" d="M22.6892 0C10.1583 0 0 10.1583 0 22.6892V23.3108C0 28.3532 1.64485 33.0114 4.42726 36.7781L7.29413 33.8797L20.0029 20.6642L13.8656 14.6057L29.7008 14.3929L29.9108 30.445L23.7735 24.3865L8.11397 40.7001C12.0564 44.008 17.1402 46 22.6892 46C35.2201 46 45.3784 35.8417 45.3784 23.3108V22.6892C45.3784 10.1583 35.2201 0 22.6892 0Z" fill="#4EF2A3"/>
<path d="M4.42726 36.7781L3.75334 37.2759L4.33477 38.063L5.02293 37.3673L4.42726 36.7781ZM7.29413 33.8797L7.88986 34.469L7.89804 34.4605L7.29413 33.8797ZM20.0029 20.6642L20.6068 21.245L21.18 20.6489L20.5915 20.068L20.0029 20.6642ZM13.8656 14.6057L13.8543 13.7679L11.8516 13.7948L13.277 15.2019L13.8656 14.6057ZM29.7008 14.3929L30.5386 14.3819L30.5276 13.5438L29.6896 13.5551L29.7008 14.3929ZM29.9108 30.445L29.3222 31.0413L30.7753 32.4757L30.7485 30.4341L29.9108 30.445ZM23.7735 24.3865L24.3621 23.7902L23.7574 23.1933L23.1691 23.8063L23.7735 24.3865ZM8.11397 40.7001L7.50954 40.1199L6.8892 40.7661L7.57543 41.3419L8.11397 40.7001ZM0.837838 22.6892C0.837838 10.621 10.621 0.837838 22.6892 0.837838V-0.837838C9.69557 -0.837838 -0.837838 9.69557 -0.837838 22.6892H0.837838ZM0.837838 23.3108V22.6892H-0.837838V23.3108H0.837838ZM5.10117 36.2803C2.42161 32.6528 0.837838 28.168 0.837838 23.3108H-0.837838C-0.837838 28.5384 0.868087 33.3699 3.75334 37.2759L5.10117 36.2803ZM6.69846 33.2905L3.83159 36.1889L5.02293 37.3673L7.8898 34.4689L6.69846 33.2905ZM19.399 20.0835L6.69022 33.299L7.89804 34.4605L20.6068 21.245L19.399 20.0835ZM13.277 15.2019L19.4143 21.2605L20.5915 20.068L14.4542 14.0094L13.277 15.2019ZM29.6896 13.5551L13.8543 13.7679L13.8768 15.4434L29.7121 15.2306L29.6896 13.5551ZM30.7485 30.4341L30.5386 14.3819L28.8631 14.4038L29.073 30.456L30.7485 30.4341ZM23.1849 24.9827L29.3222 31.0413L30.4994 29.8488L24.3621 23.7902L23.1849 24.9827ZM8.7184 41.2803L24.3779 24.9667L23.1691 23.8063L7.50954 40.1199L8.7184 41.2803ZM22.6892 45.1622C17.3444 45.1622 12.4497 43.2443 8.65251 40.0582L7.57543 41.3419C11.6631 44.7717 16.936 46.8378 22.6892 46.8378V45.1622ZM44.5405 23.3108C44.5405 35.379 34.7574 45.1622 22.6892 45.1622V46.8378C35.6828 46.8378 46.2162 36.3044 46.2162 23.3108H44.5405ZM44.5405 22.6892V23.3108H46.2162V22.6892H44.5405ZM22.6892 0.837838C34.7574 0.837838 44.5405 10.621 44.5405 22.6892H46.2162C46.2162 9.69557 35.6828 -0.837838 22.6892 -0.837838V0.837838Z" fill="white" mask="url(#path-1-inside-1_59_13)"/>
</svg>
